<?xml version="1.0" encoding="UTF-8"?>
<svg xmlns="http://www.w3.org/2000/svg" width="1440" height="900" viewBox="0 0 1440 900" fill="none"><rect x="0" y="0" width="1440" height="900" fill="#f2efe7"/><rect x="0" y="0" width="1440" height="900" fill="#f2efe7"/><rect x="0" y="0" width="72" height="900" fill="#e9e4d8"/><line x1="71.5" y1="0" x2="71.5" y2="900" stroke="#ded7c6" stroke-width="1"/><rect x="17.5" y="20" width="36" height="36" rx="12.00" fill="#16150f"/><text x="29.97" y="42.09" font-family="Inter" font-size="17" font-weight="600" fill="#f2efe7" xml:space="preserve">S</text><rect x="49.5" y="24" width="7" height="7" rx="3.50" fill="#c2542f"/><g class="icon" transform="translate(25.5,92) scale(0.8333,0.8333)" fill="none" stroke="#7c7566" stroke-width="1.5" stroke-linecap="round" stroke-linejoin="round"><path d="M3 10l9-7 9 7v10a2 2 0 0 1-2 2H5a2 2 0 0 1-2-2z"></path><path d="M9.5 21.5V13h5v8.5"></path></g><g class="icon" transform="translate(25.5,140) scale(0.8333,0.8333)" fill="none" stroke="#7c7566" stroke-width="1.5" stroke-linecap="round" stroke-linejoin="round"><circle cx="11" cy="11" r="8"></circle><path d="M21 21l-4.35-4.35"></path></g><rect x="13.5" y="176" width="44" height="44" rx="12.00" fill="#fbfaf6"/><rect x="14" y="176.5" width="43" height="43" rx="11.50" fill="none" stroke="#ded7c6" stroke-width="1"/><g class="icon" transform="translate(25.5,188) scale(0.8333,0.8333)" fill="none" stroke="#c2542f" stroke-width="1.5" stroke-linecap="round" stroke-linejoin="round"><path d="M2 4h6a4 4 0 0 1 4 4v12a3 3 0 0 0-3-3H2z"></path><path d="M22 4h-6a4 4 0 0 0-4 4v12a3 3 0 0 1 3-3h7z"></path></g><g class="icon" transform="translate(25.5,236) scale(0.8333,0.8333)" fill="none" stroke="#7c7566" stroke-width="1.5" stroke-linecap="round" stroke-linejoin="round"><path d="M14 2H6a2 2 0 0 0-2 2v16a2 2 0 0 0 2 2h12a2 2 0 0 0 2-2V8z"></path><path d="M14 2v6h6"></path><path d="M16 13H8"></path><path d="M16 17H8"></path><path d="M10 9H8"></path></g><g class="icon" transform="translate(25.5,284) scale(0.8333,0.8333)" fill="none" stroke="#7c7566" stroke-width="1.5" stroke-linecap="round" stroke-linejoin="round"><path d="M21 15v4a2 2 0 0 1-2 2H5a2 2 0 0 1-2-2v-4"></path><path d="M7 10l5 5 5-5"></path><path d="M12 15V3"></path></g><g class="icon" transform="translate(25.5,760) scale(0.8333,0.8333)" fill="none" stroke="#7c7566" stroke-width="1.5" stroke-linecap="round" stroke-linejoin="round"><circle cx="12" cy="12" r="4.5"></circle><path d="M12 1v2"></path><path d="M12 21v2"></path><path d="M4.2 4.2l1.4 1.4"></path><path d="M18.4 18.4l1.4 1.4"></path><path d="M1 12h2"></path><path d="M21 12h2"></path><path d="M4.2 19.8l1.4-1.4"></path><path d="M18.4 5.6l1.4-1.4"></path></g><g class="icon" transform="translate(25.5,808) scale(0.8333,0.8333)" fill="none" stroke="#7c7566" stroke-width="1.5" stroke-linecap="round" stroke-linejoin="round"><path d="M4 21v-7"></path><path d="M4 10V3"></path><path d="M12 21v-9"></path><path d="M12 8V3"></path><path d="M20 21v-5"></path><path d="M20 12V3"></path><path d="M1 14h6"></path><path d="M9 8h6"></path><path d="M17 16h6"></path></g><rect x="17.5" y="844" width="36" height="36" rx="12.00" fill="#c2542f"/><text x="30.27" y="865.28" font-family="Inter" font-size="14" font-weight="600" fill="#ffffff" xml:space="preserve">Н</text><rect x="72" y="0" width="280" height="900" fill="#f2efe7"/><line x1="351.5" y1="0" x2="351.5" y2="900" stroke="#ded7c6" stroke-width="1"/><g class="icon" transform="translate(94,30.5) scale(0.7083,0.7083)" fill="none" stroke="#4a463c" stroke-width="1.5" stroke-linecap="round" stroke-linejoin="round"><path d="M19 12H5"></path><path d="M12 19l-7-7 7-7"></path></g><text x="121.00" y="42.28" font-family="Inter" font-size="14" font-weight="500" fill="#4a463c" xml:space="preserve">Все работы</text><text x="96.00" y="86.97" font-family="JetBrains Mono" font-size="11" letter-spacing="2.20" fill="#7c7566" xml:space="preserve">РОМАН · 18 ГЛАВ</text><text x="96.00" y="114.55" font-family="Inter" font-size="18" font-weight="600" letter-spacing="-0.36" fill="#16150f" xml:space="preserve">Тёмная сторона Луны</text><text x="96.00" y="158.66" font-family="JetBrains Mono" font-size="11" letter-spacing="2.20" fill="#7c7566" xml:space="preserve">ЧАСТЬ I · ГОРОД</text><rect x="88" y="176.88" width="247" height="38" rx="10.00" fill="#e9e4d8"/><text x="98.00" y="199.11" font-family="JetBrains Mono" font-size="12" font-weight="500" fill="#c2542f" xml:space="preserve">1</text><text x="124.00" y="199.16" font-family="Inter" font-size="14" font-weight="500" fill="#16150f" xml:space="preserve">Первый снег</text><text x="98.00" y="243.11" font-family="JetBrains Mono" font-size="12" font-weight="500" fill="#c2542f" xml:space="preserve">2</text><text x="124.00" y="243.16" font-family="Inter" font-size="14" font-weight="500" fill="#4a463c" xml:space="preserve">Улица Ленина, 12</text><text x="98.00" y="287.12" font-family="JetBrains Mono" font-size="12" font-weight="500" fill="#c2542f" xml:space="preserve">3</text><text x="124.00" y="287.16" font-family="Inter" font-size="14" font-weight="500" fill="#4a463c" xml:space="preserve">Соседи</text><text x="98.00" y="331.12" font-family="JetBrains Mono" font-size="12" font-weight="500" fill="#c2542f" xml:space="preserve">4</text><text x="124.00" y="331.16" font-family="Inter" font-size="14" font-weight="500" fill="#4a463c" xml:space="preserve">Тишина</text><text x="98.00" y="375.12" font-family="JetBrains Mono" font-size="12" font-weight="500" fill="#c2542f" xml:space="preserve">5</text><text x="124.00" y="375.16" font-family="Inter" font-size="14" font-weight="500" fill="#4a463c" xml:space="preserve">Письмо</text><text x="98.00" y="419.12" font-family="JetBrains Mono" font-size="12" font-weight="500" fill="#c2542f" xml:space="preserve">6</text><text x="124.00" y="419.16" font-family="Inter" font-size="14" font-weight="500" fill="#4a463c" xml:space="preserve">Мокрый асфальт</text><text x="96.00" y="465.84" font-family="JetBrains Mono" font-size="11" letter-spacing="2.20" fill="#7c7566" xml:space="preserve">ЧАСТЬ II · ДОЖДЬ</text><text x="98.00" y="506.30" font-family="JetBrains Mono" font-size="12" font-weight="500" fill="#c2542f" xml:space="preserve">7</text><text x="124.00" y="506.34" font-family="Inter" font-size="14" font-weight="500" fill="#4a463c" xml:space="preserve">Дождь</text><text x="98.00" y="550.30" font-family="JetBrains Mono" font-size="12" font-weight="500" fill="#c2542f" xml:space="preserve">8</text><text x="124.00" y="550.34" font-family="Inter" font-size="14" font-weight="500" fill="#4a463c" xml:space="preserve">Лампа напротив</text><text x="98.00" y="594.30" font-family="JetBrains Mono" font-size="12" font-weight="500" fill="#c2542f" xml:space="preserve">9</text><text x="124.00" y="594.34" font-family="Inter" font-size="14" font-weight="500" fill="#4a463c" xml:space="preserve">Семь черновиков</text><g class="icon" transform="translate(98,852.5) scale(0.7083,0.7083)" fill="none" stroke="#4a463c" stroke-width="1.5" stroke-linecap="round" stroke-linejoin="round"><path d="M12 5v14"></path><path d="M5 12h14"></path></g><text x="125.00" y="864.28" font-family="Inter" font-size="14" font-weight="500" fill="#4a463c" xml:space="preserve">Добавить главу</text><rect x="352" y="0" width="1088" height="900" fill="#f2efe7"/><line x1="352" y1="59.5" x2="1440" y2="59.5" stroke="#ded7c6" stroke-width="1"/><text x="376.00" y="32.78" font-family="Inter" font-size="14" fill="#7c7566" xml:space="preserve">Библиотека</text><text x="466.27" y="32.78" font-family="Inter" font-size="14" fill="#7c7566" xml:space="preserve">/</text><text x="481.31" y="33.55" font-family="Inter" font-size="15" font-weight="600" letter-spacing="-0.15" fill="#16150f" xml:space="preserve">Тёмная сторона Луны</text><rect x="989.88" y="11" width="146.63" height="37" rx="9.50" fill="none" stroke="#c0b8a3" stroke-width="1"/><g class="icon" transform="translate(1006.38,21.5) scale(0.6667,0.6667)" fill="none" stroke="#16150f" stroke-width="1.5" stroke-linecap="round" stroke-linejoin="round"><path d="M21 15v4a2 2 0 0 1-2 2H5a2 2 0 0 1-2-2v-4"></path><path d="M17 8l-5-5-5 5"></path><path d="M12 3v12"></path></g><text x="1030.38" y="32.51" font-family="Inter" font-size="13" font-weight="500" letter-spacing="-0.13" fill="#16150f" xml:space="preserve">Импорт главы</text><rect x="1147.5" y="11" width="107.44" height="37" rx="9.50" fill="none" stroke="#c0b8a3" stroke-width="1"/><g class="icon" transform="translate(1164,21.5) scale(0.6667,0.6667)" fill="none" stroke="#16150f" stroke-width="1.5" stroke-linecap="round" stroke-linejoin="round"><path d="M1 12s4-7 11-7 11 7 11 7-4 7-11 7S1 12 1 12z"></path><circle cx="12" cy="12" r="3"></circle></g><text x="1188.00" y="32.51" font-family="Inter" font-size="13" font-weight="500" letter-spacing="-0.13" fill="#16150f" xml:space="preserve">Превью</text><rect x="1265.44" y="10.5" width="150.56" height="38" rx="10.00" fill="#c2542f"/><rect x="1265.94" y="11" width="149.56" height="37" rx="9.50" fill="none" stroke="#c2542f" stroke-width="1"/><g class="icon" transform="translate(1282.44,21.5) scale(0.6667,0.6667)" fill="none" stroke="#ffffff" stroke-width="1.5" stroke-linecap="round" stroke-linejoin="round"><path d="M2 4h6a4 4 0 0 1 4 4v12a3 3 0 0 0-3-3H2z"></path><path d="M22 4h-6a4 4 0 0 0-4 4v12a3 3 0 0 1 3-3h7z"></path></g><text x="1306.44" y="32.51" font-family="Inter" font-size="13" font-weight="500" letter-spacing="-0.13" fill="#ffffff" xml:space="preserve">Собрать книгу</text><rect x="392.5" y="88.5" width="64.72" height="23" rx="11.50" fill="none" stroke="#ded7c6" stroke-width="1"/><text x="403.00" y="102.47" font-family="Inter" font-size="11" font-weight="500" letter-spacing="0.44" fill="#7c7566" xml:space="preserve">РОМАН</text><rect x="468.22" y="88.5" width="77.72" height="23" rx="11.50" fill="none" stroke="#c2542f" stroke-width="1"/><text x="478.72" y="102.47" font-family="Inter" font-size="11" font-weight="500" letter-spacing="0.44" fill="#c2542f" xml:space="preserve">В РАБОТЕ</text><text x="556.44" y="102.97" font-family="JetBrains Mono" font-size="11" fill="#a9a292" xml:space="preserve">СОЗДАН 12.03.2026</text><text x="392.00" y="157.30" font-family="Inter" font-size="40" font-weight="600" letter-spacing="-1.28" fill="#16150f" xml:space="preserve">Тёмная сторона Луны</text><text x="392.00" y="199.59" font-family="Source Serif 4" font-size="17" font-style="italic" fill="#4a463c" xml:space="preserve">История о городе, который просыпается только в дождь, и о женщине,</text><text x="392.00" y="226.78" font-family="Source Serif 4" font-size="17" font-style="italic" fill="#4a463c" xml:space="preserve">переписавшей первую строку семь раз.</text><text x="392.00" y="276.75" font-family="JetBrains Mono" font-size="11" letter-spacing="2.20" fill="#7c7566" xml:space="preserve">СТРУКТУРА КНИГИ</text><rect x="540" y="273.88" width="322.25" height="1" fill="#ded7c6"/><rect x="878.75" y="258.88" width="114.91" height="31" rx="7.50" fill="none" stroke="#c0b8a3" stroke-width="1"/><g class="icon" transform="translate(891.25,267.38) scale(0.5833,0.5833)" fill="none" stroke="#16150f" stroke-width="1.5" stroke-linecap="round" stroke-linejoin="round"><path d="M11 5h10"></path><path d="M11 10h7"></path><path d="M11 15h4"></path><path d="M3 16l3 3 3-3"></path><path d="M6 5v14"></path></g><text x="913.25" y="277.12" font-family="Inter" font-size="12" font-weight="500" letter-spacing="-0.12" fill="#16150f" xml:space="preserve">По порядку</text><rect x="1010.66" y="258.88" width="80.84" height="31" rx="7.50" fill="none" stroke="#c0b8a3" stroke-width="1"/><g class="icon" transform="translate(1023.16,267.38) scale(0.5833,0.5833)" fill="none" stroke="#16150f" stroke-width="1.5" stroke-linecap="round" stroke-linejoin="round"><path d="M12 5v14"></path><path d="M5 12h14"></path></g><text x="1045.16" y="277.12" font-family="Inter" font-size="12" font-weight="500" letter-spacing="-0.12" fill="#16150f" xml:space="preserve">Глава</text><text x="404.00" y="321.34" font-family="JetBrains Mono" font-size="11" letter-spacing="2.20" fill="#7c7566" xml:space="preserve">ЧАСТЬ I · ГОРОД</text><line x1="392" y1="387.06" x2="1092" y2="387.06" stroke="#ded7c6" stroke-width="1"/><g class="icon" transform="translate(404,353.56) scale(0.6250,0.6250)" fill="none" stroke="#a9a292" stroke-width="1.5" stroke-linecap="round" stroke-linejoin="round"><circle cx="9" cy="6" r="1"></circle><circle cx="9" cy="12" r="1"></circle><circle cx="9" cy="18" r="1"></circle><circle cx="15" cy="6" r="1"></circle><circle cx="15" cy="12" r="1"></circle><circle cx="15" cy="18" r="1"></circle></g><text x="435.00" y="364.57" font-family="JetBrains Mono" font-size="13" font-weight="500" fill="#c2542f" xml:space="preserve">01</text><text x="477.00" y="365.11" font-family="Inter" font-size="15" font-weight="500" letter-spacing="-0.15" fill="#16150f" xml:space="preserve">Первый снег</text><rect x="797.77" y="349.56" width="68.73" height="23" rx="11.50" fill="none" stroke="#4f7a4b" stroke-width="1"/><text x="808.27" y="363.53" font-family="Inter" font-size="11" font-weight="500" letter-spacing="0.44" fill="#4f7a4b" xml:space="preserve">ГОТОВО</text><text x="892.19" y="364.30" font-family="JetBrains Mono" font-size="12" fill="#7c7566" xml:space="preserve">4 210 сл.</text><text x="1016.00" y="364.03" font-family="JetBrains Mono" font-size="11" fill="#a9a292" xml:space="preserve">12.03</text><g class="icon" transform="translate(1065,353.56) scale(0.6250,0.6250)" fill="none" stroke="#a9a292" stroke-width="1.5" stroke-linecap="round" stroke-linejoin="round"><path d="M9 18l6-6-6-6"></path></g><line x1="392" y1="439.06" x2="1092" y2="439.06" stroke="#ded7c6" stroke-width="1"/><g class="icon" transform="translate(404,405.56) scale(0.6250,0.6250)" fill="none" stroke="#a9a292" stroke-width="1.5" stroke-linecap="round" stroke-linejoin="round"><circle cx="9" cy="6" r="1"></circle><circle cx="9" cy="12" r="1"></circle><circle cx="9" cy="18" r="1"></circle><circle cx="15" cy="6" r="1"></circle><circle cx="15" cy="12" r="1"></circle><circle cx="15" cy="18" r="1"></circle></g><text x="435.00" y="416.57" font-family="JetBrains Mono" font-size="13" font-weight="500" fill="#c2542f" xml:space="preserve">02</text><text x="477.00" y="417.11" font-family="Inter" font-size="15" font-weight="500" letter-spacing="-0.15" fill="#16150f" xml:space="preserve">Улица Ленина, 12</text><rect x="797.77" y="401.56" width="68.73" height="23" rx="11.50" fill="none" stroke="#4f7a4b" stroke-width="1"/><text x="808.27" y="415.53" font-family="Inter" font-size="11" font-weight="500" letter-spacing="0.44" fill="#4f7a4b" xml:space="preserve">ГОТОВО</text><text x="892.19" y="416.30" font-family="JetBrains Mono" font-size="12" fill="#7c7566" xml:space="preserve">3 980 сл.</text><text x="1016.00" y="416.03" font-family="JetBrains Mono" font-size="11" fill="#a9a292" xml:space="preserve">14.03</text><g class="icon" transform="translate(1065,405.56) scale(0.6250,0.6250)" fill="none" stroke="#a9a292" stroke-width="1.5" stroke-linecap="round" stroke-linejoin="round"><path d="M9 18l6-6-6-6"></path></g><line x1="392" y1="491.06" x2="1092" y2="491.06" stroke="#ded7c6" stroke-width="1"/><g class="icon" transform="translate(404,457.56) scale(0.6250,0.6250)" fill="none" stroke="#a9a292" stroke-width="1.5" stroke-linecap="round" stroke-linejoin="round"><circle cx="9" cy="6" r="1"></circle><circle cx="9" cy="12" r="1"></circle><circle cx="9" cy="18" r="1"></circle><circle cx="15" cy="6" r="1"></circle><circle cx="15" cy="12" r="1"></circle><circle cx="15" cy="18" r="1"></circle></g><text x="435.00" y="468.57" font-family="JetBrains Mono" font-size="13" font-weight="500" fill="#c2542f" xml:space="preserve">03</text><text x="477.00" y="469.11" font-family="Inter" font-size="15" font-weight="500" letter-spacing="-0.15" fill="#16150f" xml:space="preserve">Соседи</text><text x="892.19" y="468.30" font-family="JetBrains Mono" font-size="12" fill="#7c7566" xml:space="preserve">5 120 сл.</text><text x="1016.00" y="468.03" font-family="JetBrains Mono" font-size="11" fill="#a9a292" xml:space="preserve">19.03</text><g class="icon" transform="translate(1065,457.56) scale(0.6250,0.6250)" fill="none" stroke="#a9a292" stroke-width="1.5" stroke-linecap="round" stroke-linejoin="round"><path d="M9 18l6-6-6-6"></path></g><text x="404.00" y="522.53" font-family="JetBrains Mono" font-size="11" letter-spacing="2.20" fill="#7c7566" xml:space="preserve">ЧАСТЬ II · ДОЖДЬ</text><rect x="392" y="536.75" width="700" height="52" rx="10.00" fill="#e9e4d8"/><line x1="392" y1="588.25" x2="1092" y2="588.25" stroke="#ded7c6" stroke-width="1"/><g class="icon" transform="translate(404,554.75) scale(0.6250,0.6250)" fill="none" stroke="#a9a292" stroke-width="1.5" stroke-linecap="round" stroke-linejoin="round"><circle cx="9" cy="6" r="1"></circle><circle cx="9" cy="12" r="1"></circle><circle cx="9" cy="18" r="1"></circle><circle cx="15" cy="6" r="1"></circle><circle cx="15" cy="12" r="1"></circle><circle cx="15" cy="18" r="1"></circle></g><text x="435.00" y="565.76" font-family="JetBrains Mono" font-size="13" font-weight="500" fill="#c2542f" xml:space="preserve">07</text><text x="477.00" y="566.30" font-family="Inter" font-size="15" font-weight="500" letter-spacing="-0.15" fill="#16150f" xml:space="preserve">Дождь</text><rect x="780.83" y="550.75" width="85.67" height="23" rx="11.50" fill="none" stroke="#ded7c6" stroke-width="1"/><text x="791.33" y="564.72" font-family="Inter" font-size="11" font-weight="500" letter-spacing="0.44" fill="#7c7566" xml:space="preserve">ЧЕРНОВИК</text><text x="892.19" y="565.49" font-family="JetBrains Mono" font-size="12" fill="#7c7566" xml:space="preserve">2 140 сл.</text><text x="1002.80" y="565.22" font-family="JetBrains Mono" font-size="11" fill="#a9a292" xml:space="preserve">сегодня</text><g class="icon" transform="translate(1065,554.75) scale(0.6250,0.6250)" fill="none" stroke="#a9a292" stroke-width="1.5" stroke-linecap="round" stroke-linejoin="round"><path d="M9 18l6-6-6-6"></path></g><line x1="392" y1="640.25" x2="1092" y2="640.25" stroke="#ded7c6" stroke-width="1"/><g class="icon" transform="translate(404,606.75) scale(0.6250,0.6250)" fill="none" stroke="#a9a292" stroke-width="1.5" stroke-linecap="round" stroke-linejoin="round"><circle cx="9" cy="6" r="1"></circle><circle cx="9" cy="12" r="1"></circle><circle cx="9" cy="18" r="1"></circle><circle cx="15" cy="6" r="1"></circle><circle cx="15" cy="12" r="1"></circle><circle cx="15" cy="18" r="1"></circle></g><text x="435.00" y="617.76" font-family="JetBrains Mono" font-size="13" font-weight="500" fill="#c2542f" xml:space="preserve">08</text><text x="477.00" y="618.30" font-family="Inter" font-size="15" font-weight="500" letter-spacing="-0.15" fill="#16150f" xml:space="preserve">Лампа напротив</text><text x="892.19" y="617.49" font-family="JetBrains Mono" font-size="12" fill="#7c7566" xml:space="preserve">1 460 сл.</text><text x="1016.00" y="617.22" font-family="JetBrains Mono" font-size="11" fill="#a9a292" xml:space="preserve">вчера</text><g class="icon" transform="translate(1065,606.75) scale(0.6250,0.6250)" fill="none" stroke="#a9a292" stroke-width="1.5" stroke-linecap="round" stroke-linejoin="round"><path d="M9 18l6-6-6-6"></path></g><line x1="392" y1="692.25" x2="1092" y2="692.25" stroke="#ded7c6" stroke-width="1"/><g class="icon" transform="translate(404,658.75) scale(0.6250,0.6250)" fill="none" stroke="#a9a292" stroke-width="1.5" stroke-linecap="round" stroke-linejoin="round"><circle cx="9" cy="6" r="1"></circle><circle cx="9" cy="12" r="1"></circle><circle cx="9" cy="18" r="1"></circle><circle cx="15" cy="6" r="1"></circle><circle cx="15" cy="12" r="1"></circle><circle cx="15" cy="18" r="1"></circle></g><text x="435.00" y="669.76" font-family="JetBrains Mono" font-size="13" font-weight="500" fill="#c2542f" xml:space="preserve">09</text><text x="477.00" y="670.30" font-family="Inter" font-size="15" font-weight="500" letter-spacing="-0.15" fill="#16150f" xml:space="preserve">Семь черновиков</text><text x="906.59" y="669.49" font-family="JetBrains Mono" font-size="12" fill="#7c7566" xml:space="preserve">880 сл.</text><text x="1016.00" y="669.22" font-family="JetBrains Mono" font-size="11" fill="#a9a292" xml:space="preserve">вчера</text><g class="icon" transform="translate(1065,658.75) scale(0.6250,0.6250)" fill="none" stroke="#a9a292" stroke-width="1.5" stroke-linecap="round" stroke-linejoin="round"><path d="M9 18l6-6-6-6"></path></g><rect x="1120" y="88" width="280" height="209" rx="16.00" fill="#fbfaf6"/><rect x="1120.5" y="88.5" width="279" height="208" rx="15.50" fill="none" stroke="#ded7c6" stroke-width="1"/><g class="icon" transform="translate(1141,109) scale(0.7083,0.7083)" fill="none" stroke="#c2542f" stroke-width="1.5" stroke-linecap="round" stroke-linejoin="round"><circle cx="12" cy="12" r="9"></circle><circle cx="12" cy="12" r="4.5"></circle><circle cx="12" cy="12" r="1"></circle></g><text x="1166.00" y="119.88" font-family="JetBrains Mono" font-size="11" letter-spacing="2.20" fill="#7c7566" xml:space="preserve">ЦЕЛЬ</text><g class="icon" transform="translate(1364,110) scale(0.6250,0.6250)" fill="none" stroke="#a9a292" stroke-width="1.5" stroke-linecap="round" stroke-linejoin="round"><path d="M4 21v-7"></path><path d="M4 10V3"></path><path d="M12 21v-9"></path><path d="M12 8V3"></path><path d="M20 21v-5"></path><path d="M20 12V3"></path><path d="M1 14h6"></path><path d="M9 8h6"></path><path d="M17 16h6"></path></g><text x="1141.00" y="161.06" font-family="JetBrains Mono" font-size="28" font-weight="500" letter-spacing="-0.56" fill="#16150f" xml:space="preserve">82 410</text><text x="1246.45" y="162.51" font-family="Inter" font-size="13" fill="#7c7566" xml:space="preserve">/ 130 000</text><rect x="1141" y="182" width="238" height="3" rx="1.50" fill="#e2dccb"/><rect x="1141" y="182" width="152.31" height="3" rx="1.50" fill="#c2542f"/><text x="1141.00" y="208.97" font-family="JetBrains Mono" font-size="11" fill="#7c7566" xml:space="preserve">64 % · ОСТАЛОСЬ 47 590 СЛОВ</text><rect x="1141" y="227" width="238" height="1" fill="#ded7c6"/><g class="icon" transform="translate(1141,243) scale(0.6250,0.6250)" fill="none" stroke="#c2542f" stroke-width="1.5" stroke-linecap="round" stroke-linejoin="round"><path d="M12 2.5s4.5 4.6 4.5 8.5a4.5 4.5 0 0 1-9 0c0-1.6.7-2.8.7-2.8s.9 1.7 1.8 1.7c1.1 0 2-2.6 2-7.4z"></path></g><text x="1164.00" y="254.01" font-family="Inter" font-size="13" fill="#4a463c" xml:space="preserve">Сегодня</text><text x="1293.19" y="254.01" font-family="JetBrains Mono" font-size="13" fill="#16150f" xml:space="preserve">640 / 1 000</text><rect x="1141" y="273" width="238" height="3" rx="1.50" fill="#e2dccb"/><rect x="1141" y="273" width="152.31" height="3" rx="1.50" fill="#4f7a4b"/><rect x="1120" y="313" width="280" height="200.19" rx="16.00" fill="#fbfaf6"/><rect x="1120.5" y="313.5" width="279" height="199.19" rx="15.50" fill="none" stroke="#ded7c6" stroke-width="1"/><text x="1141.00" y="342.97" font-family="JetBrains Mono" font-size="11" letter-spacing="2.20" fill="#7c7566" xml:space="preserve">СТАТИСТИКА</text><text x="1141.00" y="371.20" font-family="Inter" font-size="13" fill="#7c7566" xml:space="preserve">Глав</text><text x="1363.39" y="371.20" font-family="JetBrains Mono" font-size="13" fill="#16150f" xml:space="preserve">18</text><text x="1141.00" y="400.20" font-family="Inter" font-size="13" fill="#7c7566" xml:space="preserve">Готово</text><text x="1363.39" y="400.20" font-family="JetBrains Mono" font-size="13" fill="#16150f" xml:space="preserve">11</text><text x="1141.00" y="429.20" font-family="Inter" font-size="13" fill="#7c7566" xml:space="preserve">Знаков</text><text x="1324.39" y="429.20" font-family="JetBrains Mono" font-size="13" fill="#16150f" xml:space="preserve">512 040</text><text x="1141.00" y="458.20" font-family="Inter" font-size="13" fill="#7c7566" xml:space="preserve">Страниц A4</text><text x="1355.59" y="458.20" font-family="JetBrains Mono" font-size="13" fill="#16150f" xml:space="preserve">214</text><text x="1141.00" y="487.20" font-family="Inter" font-size="13" fill="#7c7566" xml:space="preserve">Чтение</text><text x="1285.36" y="487.20" font-family="JetBrains Mono" font-size="13" fill="#16150f" xml:space="preserve">≈ 5 ч 30 мин</text><rect x="1120.5" y="529.69" width="279" height="37" rx="9.50" fill="none" stroke="#c0b8a3" stroke-width="1"/><g class="icon" transform="translate(1137,540.19) scale(0.6667,0.6667)" fill="none" stroke="#16150f" stroke-width="1.5" stroke-linecap="round" stroke-linejoin="round"><path d="M20 6L9 17l-5-5"></path></g><text x="1161.00" y="551.20" font-family="Inter" font-size="13" font-weight="500" letter-spacing="-0.13" fill="#16150f" xml:space="preserve">Отметить завершённым</text><rect x="1120.5" y="575.69" width="279" height="37" rx="9.50" fill="none" stroke="#b03a2e" stroke-width="1"/><g class="icon" transform="translate(1137,586.19) scale(0.6667,0.6667)" fill="none" stroke="#b03a2e" stroke-width="1.5" stroke-linecap="round" stroke-linejoin="round"><path d="M3 6h18"></path><path d="M8 6V4a1 1 0 0 1 1-1h6a1 1 0 0 1 1 1v2"></path><path d="M19 6l-1 14a2 2 0 0 1-2 2H8a2 2 0 0 1-2-2L5 6"></path></g><text x="1161.00" y="597.20" font-family="Inter" font-size="13" font-weight="500" letter-spacing="-0.13" fill="#b03a2e" xml:space="preserve">Удалить проект</text></svg>