<?xml version="1.0" encoding="UTF-8"?>
<svg xmlns="http://www.w3.org/2000/svg" width="1440" height="900" viewBox="0 0 1440 900" fill="none"><rect x="0" y="0" width="1440" height="900" fill="#f2efe7"/><rect x="72" y="56" width="32" height="32" rx="11.00" fill="#16150f"/><text x="83.11" y="76.05" font-family="Inter" font-size="15" font-weight="600" fill="#f2efe7" xml:space="preserve">S</text><rect x="101" y="59" width="6" height="6" rx="3.00" fill="#c2542f"/><text x="118.00" y="76.09" font-family="Inter" font-size="17" font-weight="600" letter-spacing="-0.34" fill="#16150f" xml:space="preserve">Sipru</text><rect x="574.8" y="70.5" width="22" height="3" rx="1.50" fill="#c2542f"/><rect x="603.8" y="70.5" width="22" height="3" rx="1.50" fill="#c2542f"/><rect x="632.8" y="70.5" width="22" height="3" rx="1.50" fill="#c2542f"/><rect x="661.8" y="70.5" width="8" height="3" rx="1.50" fill="#c0b8a3"/><rect x="676.8" y="70.5" width="8" height="3" rx="1.50" fill="#c0b8a3"/><text x="701.80" y="74.97" font-family="JetBrains Mono" font-size="11" fill="#a9a292" xml:space="preserve">03 / 05</text><text x="72.00" y="267.00" font-family="JetBrains Mono" font-size="11" letter-spacing="2.20" fill="#7c7566" xml:space="preserve">ШАГ 3 · АВТОР</text><text x="72.00" y="324.10" font-family="Inter" font-size="44" font-weight="600" letter-spacing="-1.32" fill="#16150f" xml:space="preserve">Как вас</text><text x="72.00" y="370.29" font-family="Inter" font-size="44" font-weight="600" letter-spacing="-1.32" fill="#16150f" xml:space="preserve">подписывать?</text><text x="72.00" y="413.18" font-family="Inter" font-size="17" fill="#4a463c" xml:space="preserve">Имя появится на титульном листе при экспорте и в шапке</text><text x="72.00" y="440.37" font-family="Inter" font-size="17" fill="#4a463c" xml:space="preserve">приложения.</text><line x1="72" y1="548.97" x2="592" y2="548.97" stroke="#c2542f" stroke-width="2"/><text x="72.00" y="525.11" font-family="Inter" font-size="32" font-weight="600" letter-spacing="-0.96" fill="#16150f" xml:space="preserve">Никита</text><rect x="193.44" y="500.97" width="2" height="32" fill="#c2542f"/><rect x="578" y="509.97" width="14" height="14" rx="7.00" fill="#c2542f"/><text x="72.00" y="573.94" font-family="JetBrains Mono" font-size="11" fill="#a9a292" xml:space="preserve">6 / 40 СИМВОЛОВ</text><g class="icon" transform="translate(89,624.97) scale(0.6667,0.6667)" fill="none" stroke="#4a463c" stroke-width="1.5" stroke-linecap="round" stroke-linejoin="round"><path d="M19 12H5"></path><path d="M12 19l-7-7 7-7"></path></g><text x="113.00" y="635.98" font-family="Inter" font-size="13" font-weight="500" letter-spacing="-0.13" fill="#4a463c" xml:space="preserve">Назад</text><rect x="180.52" y="613.97" width="130.8" height="46" rx="12.00" fill="#16150f"/><rect x="181.02" y="614.47" width="129.8" height="45" rx="11.50" fill="none" stroke="#16150f" stroke-width="1"/><text x="203.52" y="641.02" font-family="Inter" font-size="15" font-weight="500" letter-spacing="-0.15" fill="#f2efe7" xml:space="preserve">Дальше</text><g class="icon" transform="translate(270.31,627.97) scale(0.7500,0.7500)" fill="none" stroke="#f2efe7" stroke-width="1.5" stroke-linecap="round" stroke-linejoin="round"><path d="M5 12h14"></path><path d="M12 5l7 7-7 7"></path></g><text x="72.00" y="839.97" font-family="JetBrains Mono" font-size="11" letter-spacing="1.10" fill="#a9a292" xml:space="preserve">ВСЁ ХРАНИТСЯ ЛОКАЛЬНО · БЕЗ РЕГИСТРАЦИИ</text><rect x="820" y="0" width="620" height="900" fill="#e9e4d8"/><line x1="820.5" y1="0" x2="820.5" y2="900" stroke="#ded7c6" stroke-width="1"/><rect x="930.5" y="167" width="400" height="566" rx="4.00" fill="#fffdf8"/><rect x="931" y="167.5" width="399" height="565" rx="3.50" fill="none" stroke="#ded7c6" stroke-width="1"/><text x="983.50" y="233.20" font-family="JetBrains Mono" font-size="10" letter-spacing="2.00" fill="#a9a292" xml:space="preserve">ГЛАВА ПЕРВАЯ</text><text x="983.50" y="264.55" font-family="Inter" font-size="15" letter-spacing="-0.15" fill="#16150f" xml:space="preserve">Тишина перед словом</text><rect x="983.5" y="284" width="270.47" height="7" rx="3.00" fill="#e2dccb"/><rect x="983.5" y="305" width="294" height="7" rx="3.00" fill="#e2dccb"/><rect x="983.5" y="326" width="252.83" height="7" rx="3.00" fill="#e2dccb"/><rect x="983.5" y="347" width="285.17" height="7" rx="3.00" fill="#e2dccb"/><rect x="983.5" y="368" width="217.55" height="7" rx="3.00" fill="#e2dccb"/><rect x="983.5" y="389" width="294" height="7" rx="3.00" fill="#e2dccb"/><rect x="983.5" y="410" width="264.59" height="7" rx="3.00" fill="#e2dccb"/><rect x="983.5" y="431" width="294" height="7" rx="3.00" fill="#e2dccb"/><rect x="983.5" y="452" width="188.16" height="7" rx="3.00" fill="#e2dccb"/><rect x="983.5" y="501" width="294" height="7" rx="3.00" fill="#e2dccb"/><rect x="983.5" y="522" width="258.72" height="7" rx="3.00" fill="#e2dccb"/><rect x="983.5" y="543" width="279.3" height="7" rx="3.00" fill="#e2dccb"/><rect x="983.5" y="564" width="205.8" height="7" rx="3.00" fill="#e2dccb"/><text x="1127.50" y="672.20" font-family="JetBrains Mono" font-size="10" fill="#a9a292" xml:space="preserve">1</text></svg>