<?xml version="1.0" encoding="UTF-8"?>
<svg xmlns="http://www.w3.org/2000/svg" width="390" height="844" viewBox="0 0 390 844" fill="none"><rect x="0" y="0" width="390" height="844" fill="#0e0e0c"/><text x="24.00" y="25.24" font-family="JetBrains Mono" font-size="12" font-weight="500" fill="#f0ece2" xml:space="preserve">9:41</text><text x="299.91" y="24.97" font-family="JetBrains Mono" font-size="11" fill="#97907f" xml:space="preserve">▮▮▮ ⌁ 82 %</text><line x1="0" y1="99.5" x2="390" y2="99.5" stroke="#2c2a23" stroke-width="1"/><rect x="16" y="55.5" width="32" height="32" rx="11.00" fill="#f0ece2"/><text x="27.44" y="74.78" font-family="Inter" font-size="14" font-weight="600" fill="#0e0e0c" xml:space="preserve">S</text><rect x="45" y="58.5" width="6" height="6" rx="3.00" fill="#e0713f"/><text x="58.00" y="75.82" font-family="Inter" font-size="16" font-weight="600" letter-spacing="-0.32" fill="#f0ece2" xml:space="preserve">Библиотека</text><g class="icon" transform="translate(301,62.5) scale(0.7500,0.7500)" fill="none" stroke="#c4bdac" stroke-width="1.5" stroke-linecap="round" stroke-linejoin="round"><circle cx="11" cy="11" r="8"></circle><path d="M21 21l-4.35-4.35"></path></g><g class="icon" transform="translate(347,62.5) scale(0.7500,0.7500)" fill="none" stroke="#c4bdac" stroke-width="1.5" stroke-linecap="round" stroke-linejoin="round"><path d="M11 5h10"></path><path d="M11 10h7"></path><path d="M11 15h4"></path><path d="M3 16l3 3 3-3"></path><path d="M6 5v14"></path></g><text x="20.00" y="126.97" font-family="JetBrains Mono" font-size="11" letter-spacing="2.20" fill="#97907f" xml:space="preserve">ДОБРЫЙ ВЕЧЕР, НИКИТА</text><text x="20.00" y="162.29" font-family="Inter" font-size="30" font-weight="600" letter-spacing="-0.96" fill="#f0ece2" xml:space="preserve">Что напишем</text><text x="20.00" y="193.79" font-family="Inter" font-size="30" font-weight="600" letter-spacing="-0.96" fill="#f0ece2" xml:space="preserve">сегодня</text><text x="134.28" y="193.79" font-family="Inter" font-size="30" font-weight="600" letter-spacing="-0.96" fill="#e0713f" xml:space="preserve">?</text><rect x="20" y="218.19" width="350" height="74.19" rx="16.00" fill="#171612"/><rect x="20.5" y="218.69" width="349" height="73.19" rx="15.50" fill="none" stroke="#2c2a23" stroke-width="1"/><rect x="37" y="235.28" width="40" height="40" rx="13.00" fill="#3a241a"/><g class="icon" transform="translate(48,246.28) scale(0.7500,0.7500)" fill="none" stroke="#e0713f" stroke-width="1.5" stroke-linecap="round" stroke-linejoin="round"><path d="M12 20h9"></path><path d="M16.5 3.5a2.12 2.12 0 0 1 3 3L7 19l-4 1 1-4z"></path></g><text x="89.00" y="242.16" font-family="JetBrains Mono" font-size="11" letter-spacing="2.20" fill="#97907f" xml:space="preserve">ПРОДОЛЖИТЬ</text><text x="89.00" y="263.92" font-family="Inter" font-size="15" font-weight="600" letter-spacing="-0.23" fill="#f0ece2" xml:space="preserve">Луна / Глава 7. Дождь</text><rect x="89" y="274.38" width="234" height="3" rx="1.50" fill="#2a2822"/><rect x="89" y="274.38" width="149.75" height="3" rx="1.50" fill="#e0713f"/><g class="icon" transform="translate(335,246.28) scale(0.7500,0.7500)" fill="none" stroke="#97907f" stroke-width="1.5" stroke-linecap="round" stroke-linejoin="round"><path d="M5 12h14"></path><path d="M12 5l7 7-7 7"></path></g><rect x="20" y="308.38" width="350" height="48" rx="16.00" fill="#171612"/><rect x="20.5" y="308.88" width="349" height="47" rx="15.50" fill="none" stroke="#2c2a23" stroke-width="1"/><g class="icon" transform="translate(37,323.38) scale(0.7500,0.7500)" fill="none" stroke="#e0713f" stroke-width="1.5" stroke-linecap="round" stroke-linejoin="round"><path d="M12 2.5s4.5 4.6 4.5 8.5a4.5 4.5 0 0 1-9 0c0-1.6.7-2.8.7-2.8s.9 1.7 1.8 1.7c1.1 0 2-2.6 2-7.4z"></path></g><text x="69.00" y="335.92" font-family="JetBrains Mono" font-size="15" font-weight="500" fill="#f0ece2" xml:space="preserve">12 дней подряд</text><rect x="286" y="322.38" width="7" height="20" rx="3.00" fill="#e0713f"/><rect x="296" y="322.38" width="7" height="20" rx="3.00" fill="#e0713f"/><rect x="306" y="322.38" width="7" height="20" rx="3.00" fill="#e0713f"/><rect x="316" y="322.38" width="7" height="20" rx="3.00" fill="#e0713f"/><rect x="326" y="322.38" width="7" height="20" rx="3.00" fill="#e0713f"/><rect x="336" y="322.38" width="7" height="20" rx="3.00" fill="#2a2822"/><rect x="346" y="322.38" width="7" height="20" rx="3.00" fill="#2a2822"/><rect x="20" y="372.38" width="350" height="38" rx="10.00" fill="#201f19"/><rect x="20.5" y="372.88" width="349" height="37" rx="9.50" fill="none" stroke="#2c2a23" stroke-width="1"/><rect x="24" y="376.38" width="114" height="30" rx="8.00" fill="#171612"/><rect x="24.5" y="376.88" width="113" height="29" rx="7.50" fill="none" stroke="#2c2a23" stroke-width="1"/><text x="69.16" y="394.38" font-family="Inter" font-size="13" font-weight="500" fill="#f0ece2" xml:space="preserve">Всё</text><text x="167.67" y="394.38" font-family="Inter" font-size="13" font-weight="500" fill="#97907f" xml:space="preserve">Проекты</text><text x="282.58" y="394.38" font-family="Inter" font-size="13" font-weight="500" fill="#97907f" xml:space="preserve">Заметки</text><rect x="20" y="426.38" width="350" height="92.55" rx="16.00" fill="#171612"/><rect x="20.5" y="426.88" width="349" height="91.55" rx="15.50" fill="none" stroke="#2c2a23" stroke-width="1"/><rect x="21" y="427.38" width="5" height="90.55" fill="#e0713f"/><text x="42.00" y="456.08" font-family="JetBrains Mono" font-size="10" letter-spacing="1.40" fill="#97907f" xml:space="preserve">РОМАН</text><rect x="274.78" y="441.88" width="77.72" height="23" rx="11.50" fill="none" stroke="#e0713f" stroke-width="1"/><text x="285.28" y="455.84" font-family="Inter" font-size="11" font-weight="500" letter-spacing="0.44" fill="#e0713f" xml:space="preserve">В РАБОТЕ</text><text x="42.00" y="489.74" font-family="Inter" font-size="18" font-weight="600" letter-spacing="-0.36" fill="#f0ece2" xml:space="preserve">Тёмная сторона Луны</text><text x="42.00" y="516.98" font-family="JetBrains Mono" font-size="13" font-weight="500" fill="#f0ece2" xml:space="preserve">82 410</text><text x="95.81" y="516.71" font-family="Inter" font-size="12" fill="#97907f" xml:space="preserve">слов · 18 глав</text><text x="333.19" y="516.94" font-family="JetBrains Mono" font-size="11" fill="#6a6456" xml:space="preserve">64%</text><rect x="20" y="534.92" width="350" height="92.55" rx="16.00" fill="#171612"/><rect x="20.5" y="535.42" width="349" height="91.55" rx="15.50" fill="none" stroke="#2c2a23" stroke-width="1"/><rect x="21" y="535.92" width="5" height="90.55" fill="#4f7a4b"/><text x="42.00" y="564.62" font-family="JetBrains Mono" font-size="10" letter-spacing="1.40" fill="#97907f" xml:space="preserve">СБОРНИК</text><rect x="266.89" y="550.42" width="85.61" height="23" rx="11.50" fill="none" stroke="#7fa97a" stroke-width="1"/><text x="277.39" y="564.39" font-family="Inter" font-size="11" font-weight="500" letter-spacing="0.44" fill="#7fa97a" xml:space="preserve">ЗАВЕРШЁН</text><text x="42.00" y="598.28" font-family="Inter" font-size="18" font-weight="600" letter-spacing="-0.36" fill="#f0ece2" xml:space="preserve">Северный тракт</text><text x="42.00" y="625.53" font-family="JetBrains Mono" font-size="13" font-weight="500" fill="#f0ece2" xml:space="preserve">34 120</text><text x="95.81" y="625.26" font-family="Inter" font-size="12" fill="#97907f" xml:space="preserve">слов · 7 глав</text><text x="326.59" y="625.49" font-family="JetBrains Mono" font-size="11" fill="#6a6456" xml:space="preserve">100%</text><rect x="20" y="643.47" width="350" height="92.55" rx="16.00" fill="#171612"/><rect x="20.5" y="643.97" width="349" height="91.55" rx="15.50" fill="none" stroke="#2c2a23" stroke-width="1"/><rect x="21" y="644.47" width="5" height="90.55" fill="#443f34"/><text x="42.00" y="673.17" font-family="JetBrains Mono" font-size="10" letter-spacing="1.40" fill="#97907f" xml:space="preserve">ПОВЕСТЬ</text><rect x="266.83" y="658.97" width="85.67" height="23" rx="11.50" fill="none" stroke="#2c2a23" stroke-width="1"/><text x="277.33" y="672.94" font-family="Inter" font-size="11" font-weight="500" letter-spacing="0.44" fill="#97907f" xml:space="preserve">ЧЕРНОВИК</text><text x="42.00" y="706.83" font-family="Inter" font-size="18" font-weight="600" letter-spacing="-0.36" fill="#f0ece2" xml:space="preserve">Записки на полях</text><text x="42.00" y="734.07" font-family="JetBrains Mono" font-size="13" font-weight="500" fill="#f0ece2" xml:space="preserve">11 920</text><text x="95.81" y="733.80" font-family="Inter" font-size="12" fill="#97907f" xml:space="preserve">слов · 12 глав</text><text x="333.19" y="734.03" font-family="JetBrains Mono" font-size="11" fill="#6a6456" xml:space="preserve">22%</text><rect x="314" y="684" width="56" height="56" rx="18.00" fill="#e0713f"/><g class="icon" transform="translate(330,700) scale(1.0000,1.0000)" fill="none" stroke="#ffffff" stroke-width="1.5" stroke-linecap="round" stroke-linejoin="round"><path d="M12 5v14"></path><path d="M5 12h14"></path></g><rect x="0" y="754" width="390" height="64" fill="#171612"/><line x1="0" y1="754.5" x2="390" y2="754.5" stroke="#2c2a23" stroke-width="1"/><g class="icon" transform="translate(44.88,768.5) scale(0.8750,0.8750)" fill="none" stroke="#e0713f" stroke-width="1.5" stroke-linecap="round" stroke-linejoin="round"><path d="M3 10l9-7 9 7v10a2 2 0 0 1-2 2H5a2 2 0 0 1-2-2z"></path><path d="M9.5 21.5V13h5v8.5"></path></g><text x="37.09" y="802.20" font-family="Inter" font-size="10" font-weight="500" fill="#e0713f" xml:space="preserve">Работы</text><g class="icon" transform="translate(136.06,768.5) scale(0.8750,0.8750)" fill="none" stroke="#97907f" stroke-width="1.5" stroke-linecap="round" stroke-linejoin="round"><path d="M2 4h6a4 4 0 0 1 4 4v12a3 3 0 0 0-3-3H2z"></path><path d="M22 4h-6a4 4 0 0 0-4 4v12a3 3 0 0 1 3-3h7z"></path></g><text x="131.84" y="802.20" font-family="Inter" font-size="10" font-weight="500" fill="#97907f" xml:space="preserve">Книги</text><g class="icon" transform="translate(224.41,768.5) scale(0.8750,0.8750)" fill="none" stroke="#97907f" stroke-width="1.5" stroke-linecap="round" stroke-linejoin="round"><circle cx="11" cy="11" r="8"></circle><path d="M21 21l-4.35-4.35"></path></g><text x="219.48" y="802.20" font-family="Inter" font-size="10" font-weight="500" fill="#97907f" xml:space="preserve">Поиск</text><g class="icon" transform="translate(320.2,768.5) scale(0.8750,0.8750)" fill="none" stroke="#97907f" stroke-width="1.5" stroke-linecap="round" stroke-linejoin="round"><path d="M20 21v-2a4 4 0 0 0-4-4H8a4 4 0 0 0-4 4v2"></path><circle cx="12" cy="7" r="4"></circle></g><text x="308.52" y="802.20" font-family="Inter" font-size="10" font-weight="500" fill="#97907f" xml:space="preserve">Профиль</text><rect x="0" y="818" width="390" height="26" fill="#171612"/><rect x="128" y="828.5" width="134" height="5" rx="2.50" fill="#6a6456"/></svg>