<?xml version="1.0" encoding="UTF-8"?>
<svg xmlns="http://www.w3.org/2000/svg" width="390" height="844" viewBox="0 0 390 844" fill="none"><rect x="0" y="0" width="390" height="844" fill="#f2efe7"/><text x="24.00" y="25.24" font-family="JetBrains Mono" font-size="12" font-weight="500" fill="#16150f" xml:space="preserve">9:41</text><text x="299.91" y="24.97" font-family="JetBrains Mono" font-size="11" fill="#7c7566" xml:space="preserve">▮▮▮ ⌁ 82 %</text><line x1="0" y1="99.5" x2="390" y2="99.5" stroke="#ded7c6" stroke-width="1"/><text x="16.00" y="75.82" font-family="Inter" font-size="16" font-weight="600" fill="#16150f" xml:space="preserve">Профиль</text><g class="icon" transform="translate(347,62.5) scale(0.7500,0.7500)" fill="none" stroke="#4a463c" stroke-width="1.5" stroke-linecap="round" stroke-linejoin="round"><path d="M4 21v-7"></path><path d="M4 10V3"></path><path d="M12 21v-9"></path><path d="M12 8V3"></path><path d="M20 21v-5"></path><path d="M20 12V3"></path><path d="M1 14h6"></path><path d="M9 8h6"></path><path d="M17 16h6"></path></g><rect x="20" y="118" width="72" height="72" rx="24.00" fill="#c2542f"/><text x="45.55" y="161.56" font-family="Inter" font-size="28" font-weight="600" fill="#ffffff" xml:space="preserve">Н</text><text x="108.00" y="150.28" font-family="Inter" font-size="24" font-weight="600" letter-spacing="-0.72" fill="#16150f" xml:space="preserve">Никита</text><text x="108.00" y="172.66" font-family="JetBrains Mono" font-size="11" fill="#a9a292" xml:space="preserve">128 450 СЛОВ · 12 ДНЕЙ ПОДРЯД</text><rect x="20" y="206" width="350" height="122" rx="16.00" fill="#fbfaf6"/><rect x="20.5" y="206.5" width="349" height="121" rx="15.50" fill="none" stroke="#ded7c6" stroke-width="1"/><text x="37.00" y="237.63" font-family="JetBrains Mono" font-size="19" font-weight="500" fill="#16150f" xml:space="preserve">128 450</text><text x="37.00" y="256.10" font-family="Inter" font-size="11.5" fill="#7c7566" xml:space="preserve">слов написано</text><text x="201.00" y="237.63" font-family="JetBrains Mono" font-size="19" font-weight="500" fill="#16150f" xml:space="preserve">214</text><text x="201.00" y="256.10" font-family="Inter" font-size="11.5" fill="#7c7566" xml:space="preserve">страниц A4</text><text x="37.00" y="288.63" font-family="JetBrains Mono" font-size="19" font-weight="500" fill="#16150f" xml:space="preserve">4</text><text x="37.00" y="307.10" font-family="Inter" font-size="11.5" fill="#7c7566" xml:space="preserve">проекта · 37 глав</text><text x="201.00" y="288.63" font-family="JetBrains Mono" font-size="19" font-weight="500" fill="#16150f" xml:space="preserve">10</text><text x="201.00" y="307.10" font-family="Inter" font-size="11.5" fill="#7c7566" xml:space="preserve">заметок</text><text x="20.00" y="352.97" font-family="JetBrains Mono" font-size="11" letter-spacing="2.20" fill="#7c7566" xml:space="preserve">ВНЕШНИЙ ВИД</text><rect x="20" y="373.19" width="350" height="168" rx="16.00" fill="#fbfaf6"/><rect x="20.5" y="373.69" width="349" height="167" rx="15.50" fill="none" stroke="#ded7c6" stroke-width="1"/><text x="37.00" y="407.20" font-family="Inter" font-size="13" fill="#4a463c" xml:space="preserve">Тема</text><rect x="275" y="388.19" width="78" height="32" rx="10.00" fill="#e9e4d8"/><rect x="275.5" y="388.69" width="77" height="31" rx="9.50" fill="none" stroke="#ded7c6" stroke-width="1"/><rect x="278" y="391.19" width="36" height="26" rx="8.00" fill="#fbfaf6"/><rect x="278.5" y="391.69" width="35" height="25" rx="7.50" fill="none" stroke="#ded7c6" stroke-width="1"/><g class="icon" transform="translate(289,397.19) scale(0.5833,0.5833)" fill="none" stroke="#16150f" stroke-width="1.5" stroke-linecap="round" stroke-linejoin="round"><circle cx="12" cy="12" r="4.5"></circle><path d="M12 1v2"></path><path d="M12 21v2"></path><path d="M4.2 4.2l1.4 1.4"></path><path d="M18.4 18.4l1.4 1.4"></path><path d="M1 12h2"></path><path d="M21 12h2"></path><path d="M4.2 19.8l1.4-1.4"></path><path d="M18.4 5.6l1.4-1.4"></path></g><g class="icon" transform="translate(326,397.19) scale(0.5833,0.5833)" fill="none" stroke="#7c7566" stroke-width="1.5" stroke-linecap="round" stroke-linejoin="round"><path d="M21 12.79A9 9 0 1 1 11.21 3 7 7 0 0 0 21 12.79z"></path></g><rect x="37" y="430.19" width="316" height="1" fill="#ded7c6"/><text x="37.00" y="460.20" font-family="Inter" font-size="13" fill="#4a463c" xml:space="preserve">Шрифт письма</text><text x="252.19" y="460.43" font-family="JetBrains Mono" font-size="12" fill="#16150f" xml:space="preserve">Source Serif 4</text><rect x="37" y="483.19" width="316" height="1" fill="#ded7c6"/><text x="37.00" y="513.20" font-family="Inter" font-size="13" fill="#4a463c" xml:space="preserve">Язык</text><text x="302.59" y="513.43" font-family="JetBrains Mono" font-size="12" fill="#16150f" xml:space="preserve">Русский</text><text x="20.00" y="566.16" font-family="JetBrains Mono" font-size="11" letter-spacing="2.20" fill="#7c7566" xml:space="preserve">ХРАНИЛИЩЕ</text><rect x="20" y="586.38" width="350" height="65" rx="16.00" fill="#fbfaf6"/><rect x="20.5" y="586.88" width="349" height="64" rx="15.50" fill="none" stroke="#ded7c6" stroke-width="1"/><g class="icon" transform="translate(37,609.88) scale(0.7500,0.7500)" fill="none" stroke="#4f7a4b" stroke-width="1.5" stroke-linecap="round" stroke-linejoin="round"><path d="M22 19a2 2 0 0 1-2 2H4a2 2 0 0 1-2-2V5a2 2 0 0 1 2-2h5l2 3h9a2 2 0 0 1 2 2z"></path></g><text x="67.00" y="614.62" font-family="JetBrains Mono" font-size="12" fill="#16150f" xml:space="preserve">~/Документы/Книги</text><text x="67.00" y="630.12" font-family="Inter" font-size="12" fill="#7c7566" xml:space="preserve">37 файлов · синхр. 18:42</text><g class="icon" transform="translate(337,610.88) scale(0.6667,0.6667)" fill="none" stroke="#a9a292" stroke-width="1.5" stroke-linecap="round" stroke-linejoin="round"><path d="M9 18l6-6-6-6"></path></g><rect x="20.5" y="667.88" width="83.73" height="31" rx="7.50" fill="none" stroke="#c0b8a3" stroke-width="1"/><g class="icon" transform="translate(33,675.38) scale(0.6667,0.6667)" fill="none" stroke="#16150f" stroke-width="1.5" stroke-linecap="round" stroke-linejoin="round"><path d="M21 15v4a2 2 0 0 1-2 2H5a2 2 0 0 1-2-2v-4"></path><path d="M7 10l5 5 5-5"></path><path d="M12 15V3"></path></g><text x="57.00" y="686.12" font-family="Inter" font-size="12" font-weight="500" letter-spacing="-0.12" fill="#16150f" xml:space="preserve">Бэкап</text><rect x="113.23" y="667.88" width="130.3" height="31" rx="7.50" fill="none" stroke="#c0b8a3" stroke-width="1"/><g class="icon" transform="translate(125.73,675.38) scale(0.6667,0.6667)" fill="none" stroke="#16150f" stroke-width="1.5" stroke-linecap="round" stroke-linejoin="round"><path d="M21 15v4a2 2 0 0 1-2 2H5a2 2 0 0 1-2-2v-4"></path><path d="M17 8l-5-5-5 5"></path><path d="M12 3v12"></path></g><text x="149.73" y="686.12" font-family="Inter" font-size="12" font-weight="500" letter-spacing="-0.12" fill="#16150f" xml:space="preserve">Восстановить</text><rect x="0" y="754" width="390" height="64" fill="#fbfaf6"/><line x1="0" y1="754.5" x2="390" y2="754.5" stroke="#ded7c6" stroke-width="1"/><g class="icon" transform="translate(44.88,768.5) scale(0.8750,0.8750)" fill="none" stroke="#7c7566" stroke-width="1.5" stroke-linecap="round" stroke-linejoin="round"><path d="M3 10l9-7 9 7v10a2 2 0 0 1-2 2H5a2 2 0 0 1-2-2z"></path><path d="M9.5 21.5V13h5v8.5"></path></g><text x="37.09" y="802.20" font-family="Inter" font-size="10" font-weight="500" fill="#7c7566" xml:space="preserve">Работы</text><g class="icon" transform="translate(136.06,768.5) scale(0.8750,0.8750)" fill="none" stroke="#7c7566" stroke-width="1.5" stroke-linecap="round" stroke-linejoin="round"><path d="M2 4h6a4 4 0 0 1 4 4v12a3 3 0 0 0-3-3H2z"></path><path d="M22 4h-6a4 4 0 0 0-4 4v12a3 3 0 0 1 3-3h7z"></path></g><text x="131.84" y="802.20" font-family="Inter" font-size="10" font-weight="500" fill="#7c7566" xml:space="preserve">Книги</text><g class="icon" transform="translate(224.41,768.5) scale(0.8750,0.8750)" fill="none" stroke="#7c7566" stroke-width="1.5" stroke-linecap="round" stroke-linejoin="round"><circle cx="11" cy="11" r="8"></circle><path d="M21 21l-4.35-4.35"></path></g><text x="219.48" y="802.20" font-family="Inter" font-size="10" font-weight="500" fill="#7c7566" xml:space="preserve">Поиск</text><g class="icon" transform="translate(320.2,768.5) scale(0.8750,0.8750)" fill="none" stroke="#c2542f" stroke-width="1.5" stroke-linecap="round" stroke-linejoin="round"><path d="M20 21v-2a4 4 0 0 0-4-4H8a4 4 0 0 0-4 4v2"></path><circle cx="12" cy="7" r="4"></circle></g><text x="308.52" y="802.20" font-family="Inter" font-size="10" font-weight="500" fill="#c2542f" xml:space="preserve">Профиль</text><rect x="0" y="818" width="390" height="26" fill="#fbfaf6"/><rect x="128" y="828.5" width="134" height="5" rx="2.50" fill="#a9a292"/></svg>